<svg xmlns="http://www.w3.org/2000/svg" viewBox="0 0 128 128"><path fill="#4353FF" d="M14.4 41.6c-1.9 8.4-3.3 15.6-4.2 21.6-.9-6-2.3-13.2-4.2-21.6h-6L8.4 86.4h5.4l6.6-28.8c1.5-6.6 2.7-12.3 3.6-17.1.9 4.8 2.1 10.5 3.6 17.1l6.6 28.8h5.4L48 41.6h-6c-1.9 8.4-3.3 15.6-4.2 21.6-.9-6-2.3-13.2-4.2-21.6h-6l-6.6 28.8c-1.5 6.6-2.7 12.3-3.6 17.1-.9-4.8-2.1-10.5-3.6-17.1L7.2 41.6h-6zm54 0c-1.9 8.4-3.3 15.6-4.2 21.6-.9-6-2.3-13.2-4.2-21.6h-6L62.4 86.4h5.4l6.6-28.8c1.5-6.6 2.7-12.3 3.6-17.1.9 4.8 2.1 10.5 3.6 17.1l6.6 28.8h5.4L102 41.6h-6c-1.9 8.4-3.3 15.6-4.2 21.6-.9-6-2.3-13.2-4.2-21.6h-6l-6.6 28.8c-1.5 6.6-2.7 12.3-3.6 17.1-.9-4.8-2.1-10.5-3.6-17.1L61.2 41.6h-6z"/></svg>